<svg xmlns="http://www.w3.org/2000/svg" width="30" height="30" viewBox="0 0 30 30">
    <g data-name="그룹 110751">
        <path d="M-1405.929-303.06a7.883 7.883 0 0 0-7.886 6.256h-.574a1.537 1.537 0 0 0-1.54 1.54v4.409a1.537 1.537 0 0 0 1.54 1.54h.738a1.537 1.537 0 0 0 1.54-1.54v-4.673a5.931 5.931 0 0 1 6.182-5.714 5.931 5.931 0 0 1 6.182 5.714v4.937a5.931 5.931 0 0 1-6.182 5.713.909.909 0 0 0-.909.909.909.909 0 0 0 .909.909 7.882 7.882 0 0 0 7.886-6.255h.574a1.537 1.537 0 0 0 1.54-1.54v-4.409a1.537 1.537 0 0 0-1.54-1.54h-.574a7.883 7.883 0 0 0-7.886-6.256zm-1.72 13.234a.712.712 0 0 0-.757.9 2.635 2.635 0 0 0 2.478 1.738 2.635 2.635 0 0 0 2.478-1.738.712.712 0 0 0-.757-.9z" style="fill:#172760" transform="translate(1420.929 307.56)"/>
        <path data-name="사각형 60884" style="fill:none" d="M0 0h30v30H0z"/>
    </g>
</svg>
