<svg xmlns="http://www.w3.org/2000/svg" width="30" height="30" viewBox="0 0 30 30">
    <g data-name="그룹 110752">
        <g transform="translate(3.933 5)">
            <path data-name="패스 2514" d="M3.813 20.135A1.813 1.813 0 0 1 2 18.321V6.534A4.539 4.539 0 0 1 6.534 2H15.6a4.539 4.539 0 0 1 4.534 4.534v5.44a4.539 4.539 0 0 1-4.534 4.534H7.285a.907.907 0 0 0-.561.193L5.25 19.4a.88.88 0 0 1-.15.2 1.813 1.813 0 0 1-1.282.533zM6.534 3.813a2.72 2.72 0 0 0-2.72 2.72v11.71L5.207 15.7a.907.907 0 0 1 .154-.206 2.7 2.7 0 0 1 1.924-.8H15.6a2.72 2.72 0 0 0 2.72-2.72v-5.44a2.72 2.72 0 0 0-2.72-2.72z" style="fill:#172760"/>
            <path data-name="패스 2515" d="M11.907 10.534A.907.907 0 0 1 11 9.627v-2.72a.907.907 0 0 1 1.813 0v2.72a.907.907 0 0 1-.906.907z" transform="translate(-.839 -.373)" style="fill:#172760"/>
            <circle data-name="타원 186" cx="1" cy="1" r="1" transform="translate(10 11)" style="fill:#172760"/>
        </g>
        <path data-name="사각형 60885" style="fill:none" d="M0 0h30v30H0z"/>
    </g>
</svg>
