<svg xmlns="http://www.w3.org/2000/svg" width="28" height="28" viewBox="0 0 28 28">
    <defs>
        <linearGradient id="53lpsp6x1a" x1=".5" y1="1.001" x2=".5" y2=".011" gradientUnits="objectBoundingBox">
            <stop offset="0" stop-color="#99b2ac"/>
            <stop offset="1" stop-color="#17604f"/>
        </linearGradient>
    </defs>
    <g data-name="그룹 110744">
        <path data-name="패스 2507" d="M36.4 4.133a5.846 5.846 0 1 0-10.888 4.188c.068.144.08.228-.051.351-.431.41-.841.837-1.263 1.255q-3.619 3.625-7.238 7.255a1.785 1.785 0 1 0 2.522 2.527c.144-.144.27-.3.444-.511l.224.224q.938.944 1.88 1.884a.9.9 0 0 0 1.31.046q1.6-1.578 3.173-3.177a.9.9 0 0 0 0-1.242c-.089-.106-.194-.2-.292-.3-.608-.6-1.217-1.2-1.842-1.813.063-.072.085-.106.114-.135q1.756-1.762 3.507-3.528c.106-.106.182-.085.3-.03a5.712 5.712 0 0 0 3.849.4 5.847 5.847 0 0 0 4.246-7.4zm-5.59 3.955a2.252 2.252 0 1 1 2.239-2.282 2.244 2.244 0 0 1-2.243 2.282z" transform="translate(-12.536 3.204)" style="fill:url(#53lpsp6x1a)"/>
        <path data-name="사각형 60881" style="fill:none" d="M0 0h28v28H0z"/>
    </g>
</svg>
