<?xml version="1.0" encoding="UTF-8" standalone="no"?>
<svg
   width="26"
   height="26"
   viewBox="0 0 26 26"
   version="1.1"
   id="svg29"
   sodipodi:docname="110749.svg"
   xmlns:inkscape="http://www.inkscape.org/namespaces/inkscape"
   xmlns:sodipodi="http://sodipodi.sourceforge.net/DTD/sodipodi-0.dtd"
   xmlns="http://www.w3.org/2000/svg"
   xmlns:svg="http://www.w3.org/2000/svg">
  <sodipodi:namedview
     id="namedview31"
     pagecolor="#ffffff"
     bordercolor="#000000"
     borderopacity="0.25"
     inkscape:showpageshadow="2"
     inkscape:pageopacity="0.0"
     inkscape:pagecheckerboard="0"
     inkscape:deskcolor="#d1d1d1" />
  <defs
     id="defs5">
    <clipPath
       id="extefa8eha">
      <path
         data-name="사각형 111"
         style="fill:none"
         d="M0 0h8.716v10.622H0z"
         id="path2" />
    </clipPath>
  </defs>
  <g
     data-name="그룹 110749"
     transform="translate(-33,-122)"
     id="g27">
    <path
       id="circle7"
       style="fill:#c65000"
       transform="translate(36,125)"
       d="M 20,10 A 10,10 0 0 1 10,20 10,10 0 0 1 0,10 10,10 0 0 1 10,0 10,10 0 0 1 20,10 Z" />
    <g
       data-name="그룹 47"
       id="g23">
      <g
         data-name="그룹 46"
         transform="translate(41.642,129.689)"
         clip-path="url(#extefa8eha)"
         id="g21">
        <path
           data-name="패스 2477"
           d="m 124.106,23.2 -0.654,-0.309 V 30 l 0.013,-0.01 0.5,-0.37 a 1.572,1.572 0 0 0 0.431,-0.5 1.991,1.991 0 0 0 0.214,-0.609 2.275,2.275 0 0 0 0.038,-0.411 v -4.046 a 0.942,0.942 0 0 0 -0.54,-0.852"
           transform="translate(-115.93,-21.498)"
           style="fill:#ffffff"
           id="path9" />
        <path
           data-name="패스 2478"
           d="M 62.234,0.091 62.06,0.173 v 0.84 l 1.255,0.938 v -1.73 l -0.276,-0.13 a 0.942,0.942 0 0 0 -0.8,0"
           transform="translate(-58.279,-0.001)"
           style="fill:#ffffff"
           id="path11" />
        <path
           data-name="패스 2479"
           d="m 92.756,10.293 v 7.48 l 0.317,-0.236 0.937,-0.7 V 8.986 L 92.755,8.393 Z"
           transform="translate(-87.104,-7.882)"
           style="fill:#ffffff"
           id="path13" />
        <path
           data-name="패스 2480"
           d="M 32.826,8.618 A 0.517,0.517 0 0 1 32.619,8.204 v -0.6 l -0.072,0.034 -0.63,0.3 -0.552,0.261 v 0.893 l 1.254,0.938 0.616,0.461 1.255,0.938 V 9.862 L 33.235,8.924 Z"
           transform="translate(-29.453,-7.143)"
           style="fill:#ffffff"
           id="path15" />
        <path
           data-name="패스 2481"
           d="M 32.618,45.542 31.363,44.6 v 1.57 l 1.255,0.938 0.616,0.461 1.255,0.938 V 46.941 L 33.234,46 Z"
           transform="translate(-29.452,-41.885)"
           style="fill:#ffffff"
           id="path17" />
        <path
           data-name="패스 2482"
           d="M 3.166,26.75 1.911,25.812 1.5,25.506 A 0.517,0.517 0 0 1 1.293,25.092 V 22.1 l -0.116,0.055 -0.63,0.3 h -0.01 a 0.943,0.943 0 0 0 -0.54,0.853 v 4.043 a 1.878,1.878 0 0 0 0.687,1.529 l 0.611,0.454 0.616,0.458 1.255,0.933 0.616,0.458 0.014,0.011 a 0.942,0.942 0 0 0 1.124,0 L 5.036,31.108 V 28.149 L 3.781,27.211 Z"
           transform="translate(0,-20.758)"
           style="fill:#ffffff"
           id="path19" />
      </g>
    </g>
    <path
       data-name="사각형 60882"
       transform="translate(33,122)"
       style="fill:none"
       d="M 0,0 H 26 V 26 H 0 Z"
       id="path25" />
  </g>
</svg>
