<?xml version="1.0" encoding="UTF-8" standalone="no"?>
<svg
   width="146"
   height="18"
   viewBox="0 0 146 18"
   version="1.1"
   id="svg17"
   sodipodi:docname="112.svg"
   xmlns:inkscape="http://www.inkscape.org/namespaces/inkscape"
   xmlns:sodipodi="http://sodipodi.sourceforge.net/DTD/sodipodi-0.dtd"
   xmlns="http://www.w3.org/2000/svg"
   xmlns:svg="http://www.w3.org/2000/svg">
  <sodipodi:namedview
     id="namedview19"
     pagecolor="#ffffff"
     bordercolor="#000000"
     borderopacity="0.25"
     inkscape:showpageshadow="2"
     inkscape:pageopacity="0.0"
     inkscape:pagecheckerboard="0"
     inkscape:deskcolor="#d1d1d1" />
  <defs
     id="defs5">
    <clipPath
       id="y96zcysswa">
      <path
         data-name="사각형 197"
         transform="translate(0 .826)"
         style="fill:#001828"
         d="M0 0h146v18H0z"
         id="path2" />
    </clipPath>
  </defs>
  <g
     data-name="그룹 112"
     clip-path="url(#y96zcysswa)"
     id="g15">
    <g
       aria-label="BrokenMirror"
       transform="translate(0,16)"
       id="text13"
       style="font-size:21px;font-family:Helvetica;fill:#001828">
      <path
         d="m 1.659,0 h 6.909 c 1.449,0 2.52,-0.399 3.339,-1.281 0.756,-0.798 1.176,-1.89 1.176,-3.087 0,-1.848 -0.84,-2.961 -2.793,-3.717 1.407,-0.651 2.121,-1.764 2.121,-3.339 0,-1.134 -0.42,-2.1 -1.218,-2.814 -0.819,-0.735 -1.848,-1.071 -3.318,-1.071 H 1.659 Z m 1.953,-8.715 v -4.872 h 3.78 c 1.092,0 1.701,0.147 2.226,0.546 0.546,0.42 0.84,1.05 0.84,1.89 0,0.84 -0.294,1.47 -0.84,1.89 -0.525,0.399 -1.134,0.546 -2.226,0.546 z m 0,6.993 v -5.271 h 4.767 c 1.722,0 2.751,0.987 2.751,2.646 0,1.638 -1.029,2.625 -2.751,2.625 z"
         style="letter-spacing:0.1em"
         id="path21" />
      <path
         d="M 17.555996,-11.004 V 0 h 1.764 v -5.712 c 0.021,-2.646 1.113,-3.822 3.528,-3.759 v -1.785 c -0.294,-0.042 -0.462,-0.063 -0.672,-0.063 -1.134,0 -1.995,0.672 -3.003,2.31 v -1.995 z"
         style="letter-spacing:0.099em"
         id="path23" />
      <path
         d="m 30.76495,-11.319 c -3.108,0 -4.956,2.205 -4.956,5.901 0,3.717 1.848,5.901 4.977,5.901 3.108,0 4.977,-2.205 4.977,-5.817 0,-3.822 -1.806,-5.985 -4.998,-5.985 z m 0.021,1.617 c 1.974,0 3.15,1.617 3.15,4.347 0,2.604 -1.218,4.221 -3.15,4.221 -1.953,0 -3.15,-1.617 -3.15,-4.284 0,-2.667 1.197,-4.284 3.15,-4.284 z"
         style="letter-spacing:0.099em"
         id="path25" />
      <path
         d="m 41.768943,-15.309 h -1.743 V 0 h 1.743 v -4.284 l 1.701,-1.68 3.717,5.964 h 2.163 l -4.494,-7.203 3.822,-3.801 h -2.247 l -4.662,4.662 z"
         style="letter-spacing:0.099em"
         id="path27" />
      <path
         d="m 61.718867,-4.914 c 0,-1.68 -0.126,-2.688 -0.441,-3.507 -0.714,-1.806 -2.394,-2.898 -4.452,-2.898 -3.066,0 -5.04,2.331 -5.04,5.964 0,3.633 1.89,5.838 4.998,5.838 2.52,0 4.263,-1.428 4.704,-3.822 h -1.764 c -0.483,1.449 -1.47,2.205 -2.877,2.205 -1.113,0 -2.058,-0.504 -2.646,-1.428 -0.42,-0.63 -0.567,-1.26 -0.588,-2.352 z m -8.064,-1.428 c 0.147,-2.037 1.386,-3.36 3.15,-3.36 1.785,0 3.024,1.386 3.024,3.36 z"
         style="letter-spacing:0.099em"
         id="path29" />
      <path
         d="M 66.170861,-11.004 V 0 h 1.764 v -6.069 c 0,-2.247 1.176,-3.717 2.982,-3.717 1.386,0 2.268,0.84 2.268,2.163 V 0 h 1.743 v -8.316 c 0,-1.827 -1.365,-3.003 -3.486,-3.003 -1.638,0 -2.688,0.63 -3.654,2.163 v -1.848 z"
         style="letter-spacing:0.099em"
         id="path31" />
      <path
         d="m 88.283854,0 4.305,-12.831 V 0 h 1.848 v -15.309 h -2.709 l -4.452,13.335 -4.536,-13.335 h -2.709 V 0 h 1.848 V -12.831 L 86.225854,0 Z"
         style="letter-spacing:0.099em"
         id="path33" />
      <path
         d="M 101.17782,-11.004 H 99.434818 V 0 h 1.743002 z m 0,-4.305 h -1.764002 v 2.205 h 1.764002 z"
         style="letter-spacing:0.099em"
         id="path35" />
      <path
         d="M 106.21779,-11.004 V 0 h 1.764 v -5.712 c 0.021,-2.646 1.113,-3.822 3.528,-3.759 v -1.785 c -0.294,-0.042 -0.462,-0.063 -0.672,-0.063 -1.134,0 -1.995,0.672 -3.003,2.31 v -1.995 z"
         style="letter-spacing:0.099em"
         id="path37" />
      <path
         d="M 115.28975,-11.004 V 0 h 1.764 v -5.712 c 0.021,-2.646 1.113,-3.822 3.528,-3.759 v -1.785 c -0.294,-0.042 -0.462,-0.063 -0.672,-0.063 -1.134,0 -1.995,0.672 -3.003,2.31 v -1.995 z"
         style="letter-spacing:0.099em"
         id="path39" />
      <path
         d="m 128.4987,-11.319 c -3.108,0 -4.956,2.205 -4.956,5.901 0,3.717 1.848,5.901 4.977,5.901 3.108,0 4.977,-2.205 4.977,-5.817 0,-3.822 -1.806,-5.985 -4.998,-5.985 z m 0.021,1.617 c 1.974,0 3.15,1.617 3.15,4.347 0,2.604 -1.218,4.221 -3.15,4.221 -1.953,0 -3.15,-1.617 -3.15,-4.284 0,-2.667 1.197,-4.284 3.15,-4.284 z"
         style="letter-spacing:0.099em"
         id="path41" />
      <path
         d="M 137.99069,-11.004 V 0 h 1.764 v -5.712 c 0.021,-2.646 1.113,-3.822 3.528,-3.759 v -1.785 c -0.294,-0.042 -0.462,-0.063 -0.672,-0.063 -1.134,0 -1.995,0.672 -3.003,2.31 v -1.995 z"
         id="path43" />
    </g>
  </g>
</svg>
