<svg xmlns="http://www.w3.org/2000/svg" width="24" height="24" viewBox="0 0 24 24">
    <g data-name="그룹 130222">
        <path d="M120.935-842.516h.685l6.9-6.9-.685-.685-6.9 6.9zm9.565-7.571-1.994-1.994.654-.654a.889.889 0 0 1 .654-.265.889.889 0 0 1 .654.265l.685.685a.889.889 0 0 1 .265.654.889.889 0 0 1-.265.654zm-.654.654-7.851 7.851H120v-1.994l7.851-7.851zm-1.667-.327-.343-.343.685.685z" transform="translate(-113.709 859.197)" style="fill:#fff"/>
        <path data-name="사각형 67830" style="fill:none" d="M0 0h24v24H0z"/>
    </g>
</svg>
