<svg xmlns="http://www.w3.org/2000/svg" width="46" height="46" viewBox="0 0 46 46">
    <g data-name="그룹 130221">
        <path d="m13.963 6.067-.507 1.953a.546.546 0 0 1-.666.392l-2.011-.522a.546.546 0 1 1 .274-1.058l.7.182A5.807 5.807 0 0 0 1.5 8.448a.546.546 0 0 1-1.038-.355 6.961 6.961 0 0 1 1.631-2.626 6.827 6.827 0 0 1 2.718-1.683 6.9 6.9 0 0 1 7.912 2.711l.182-.7a.546.546 0 1 1 1.058.274zm-.788 5.806a.546.546 0 0 0-.694.339A5.807 5.807 0 0 1 2.22 13.645l.7.182a.546.546 0 1 0 .28-1.058l-2.011-.521a.546.546 0 0 0-.666.392l-.51 1.953a.546.546 0 1 0 1.058.274l.182-.7a6.9 6.9 0 0 0 7.912 2.711 6.827 6.827 0 0 0 2.718-1.683 6.961 6.961 0 0 0 1.631-2.626.546.546 0 0 0-.339-.696z" transform="translate(16.012 12.67)" style="fill:#7a7a7a"/>
        <path data-name="사각형 67829" transform="rotate(180 23 23)" style="fill:none" d="M0 0h46v46H0z"/>
    </g>
</svg>
