<svg data-name="구성 요소 37 – 2" xmlns="http://www.w3.org/2000/svg" width="22" height="22" viewBox="0 0 22 22">
    <g data-name="그룹 35">
        <path data-name="패스 2476" d="M6.558 0a6.558 6.558 0 1 0 6.558 6.558A6.556 6.556 0 0 0 6.558 0zM1.312 6.558a5.241 5.241 0 0 1 8.46-4.141L2.417 9.772a5.227 5.227 0 0 1-1.105-3.214zM6.558 11.8a5.227 5.227 0 0 1-3.213-1.1L10.7 3.345A5.241 5.241 0 0 1 6.558 11.8z" style="fill:#fff" transform="translate(4.442 4.775)"/>
    </g>
    <path data-name="사각형 60873" style="fill:none" d="M0 0h22v22H0z"/>
</svg>
