<?xml version="1.0" encoding="UTF-8" standalone="no"?>
<svg
   width="10.005"
   height="10.005"
   viewBox="0 0 10.005 10.005"
   version="1.1"
   id="svg25"
   sodipodi:docname="72668.svg"
   xmlns:inkscape="http://www.inkscape.org/namespaces/inkscape"
   xmlns:sodipodi="http://sodipodi.sourceforge.net/DTD/sodipodi-0.dtd"
   xmlns="http://www.w3.org/2000/svg"
   xmlns:svg="http://www.w3.org/2000/svg">
  <sodipodi:namedview
     id="namedview27"
     pagecolor="#ffffff"
     bordercolor="#000000"
     borderopacity="0.25"
     inkscape:showpageshadow="2"
     inkscape:pageopacity="0.0"
     inkscape:pagecheckerboard="0"
     inkscape:deskcolor="#d1d1d1" />
  <defs
     id="defs5">
    <clipPath
       id="4mlcrad7oa">
      <path
         data-name="사각형 60914"
         style="fill:#eebd23"
         d="M0 0h6.259v5.364H0z"
         id="path2" />
    </clipPath>
  </defs>
  <g
     data-name="그룹 72668"
     id="g23">
    <path
       data-name="패스 424824"
       d="M 5.44,0.2 6.175,1.046 A 0.579,0.579 0 0 0 6.7,1.24 L 7.8,1.071 a 0.586,0.586 0 0 1 0.671,0.57 L 8.5,2.768 A 0.593,0.593 0 0 0 8.779,3.259 L 9.728,3.846 A 0.6,0.6 0 0 1 9.88,4.72 L 9.186,5.6 a 0.6,0.6 0 0 0 -0.1,0.558 L 9.441,7.226 A 0.592,0.592 0 0 1 9,7.993 L 7.91,8.215 A 0.585,0.585 0 0 0 7.482,8.579 L 7.08,9.629 a 0.58,0.58 0 0 1 -0.823,0.3 L 5.281,9.389 a 0.577,0.577 0 0 0 -0.559,0 L 3.746,9.929 A 0.58,0.58 0 0 1 2.923,9.629 L 2.519,8.579 A 0.585,0.585 0 0 0 2.091,8.215 L 1,7.993 A 0.592,0.592 0 0 1 0.562,7.225 L 0.919,6.157 A 0.6,0.6 0 0 0 0.819,5.599 L 0.125,4.719 A 0.6,0.6 0 0 1 0.28,3.845 L 1.229,3.258 A 0.593,0.593 0 0 0 1.508,2.767 L 1.535,1.64 A 0.586,0.586 0 0 1 2.206,1.07 l 1.1,0.169 A 0.58,0.58 0 0 0 3.831,1.045 L 4.565,0.2 a 0.578,0.578 0 0 1 0.875,0"
       style="fill:#ffffff"
       id="path7" />
    <g
       data-name="그룹 129076"
       id="g21">
      <g
         data-name="그룹 129047"
         id="g19">
        <g
           data-name="그룹 110771"
           id="g15">
          <g
             data-name="그룹 110770"
             transform="translate(1.873,2.32)"
             clip-path="url(#4mlcrad7oa)"
             id="g13">
            <path
               data-name="패스 429424"
               d="m 195.577,57.858 a 1.9,1.9 0 0 1 -1.9,1.9 h -0.335 v 0.623 a 0.159,0.159 0 0 1 -0.271,0.112 l -1.071,-1.07 1.07,-1.07 a 0.159,0.159 0 0 1 0.271,0.112 v 0.623 h 0.335 a 1.2295,1.2295 0 0 0 0,-2.459 0.3355,0.3355 0 1 1 0,-0.671 1.9,1.9 0 0 1 1.9,1.9"
               transform="translate(-189.318,-55.176)"
               style="fill:#eebd23"
               id="path9" />
            <path
               data-name="패스 429425"
               d="m 3.577,1.117 -1.07,1.07 A 0.159,0.159 0 0 1 2.236,2.075 V 1.453 H 1.9 a 1.2295,1.2295 0 0 0 0,2.459 0.3355,0.3355 0 1 1 0,0.671 1.9,1.9 0 0 1 0,-3.8 H 2.235 V 0.159 A 0.159,0.159 0 0 1 2.506,0.047 Z"
               style="fill:#eebd23"
               id="path11" />
          </g>
        </g>
        <path
           data-name="선 46"
           transform="translate(4.267,4.267)"
           style="fill:none;stroke:#eebd23;stroke-width:0.5px;stroke-linecap:round"
           d="M 1.471,0 0,1.471"
           id="path17" />
      </g>
    </g>
  </g>
</svg>
