<svg data-name="bottom navigation_icon_bell" xmlns="http://www.w3.org/2000/svg" width="22" height="21" viewBox="0 0 22 21">
    <path data-name="패스 2474" d="M8 0a8 8 0 1 1-8 8 8 8 0 0 1 8-8z" transform="translate(3 3)" style="fill:#f3f0e7"/>
    <path data-name="사각형 86" style="fill:none" d="M0 0h22v21H0z"/>
    <path data-name="패스 2464" d="M81.273 42.7a.783.783 0 0 1 .782.782v.841a5.213 5.213 0 0 1 2.728 1.245 4.353 4.353 0 0 1 1.5 3.246 6.667 6.667 0 0 0 .709 3.18l.007.015c.283.532.5.947.65 1.241.073.147.14.286.184.4a1.788 1.788 0 0 1 .066.2.94.94 0 0 1 .026.364 1.191 1.191 0 0 1-.147.459 1.214 1.214 0 0 1-.334.349 1.043 1.043 0 0 1-.3.143 1.8 1.8 0 0 1-.2.037 5.31 5.31 0 0 1-.389.029c-.279.011-.672.011-1.164.011H77.16c-.492 0-.881 0-1.164-.011a3.059 3.059 0 0 1-.389-.029 1.533 1.533 0 0 1-.2-.037.965.965 0 0 1-.3-.143 1.166 1.166 0 0 1-.338-.349 1.129 1.129 0 0 1-.147-.459 1.022 1.022 0 0 1 .026-.364 1.564 1.564 0 0 1 .066-.2c.048-.118.11-.253.184-.4.147-.3.367-.712.65-1.241l.007-.015a6.655 6.655 0 0 0 .709-3.18 4.353 4.353 0 0 1 1.5-3.246 5.213 5.213 0 0 1 2.728-1.245v-.841a.78.78 0 0 1 .782-.782zm0 2.743a4.1 4.1 0 0 0-2.714.991 3.057 3.057 0 0 0-1.072 2.28 9.046 9.046 0 0 1-.98 4.3c-.224.422-.408.764-.547 1.032h10.626a79.7 79.7 0 0 0-.547-1.032 9.024 9.024 0 0 1-.98-4.3 3.057 3.057 0 0 0-1.072-2.28 4.1 4.1 0 0 0-2.714-.991z" style="fill:#172760;fill-rule:evenodd" transform="translate(-70.273 -39.333)"/>
    <path data-name="패스 2465" d="M179.355 402.613a.784.784 0 0 1 1.105-.07 2.357 2.357 0 0 0 3.114 0 .781.781 0 0 1 1.105.07c.286.323.114.58-.07.812a3.923 3.923 0 0 1-5.189 0 .523.523 0 0 1-.065-.812z" transform="translate(-171.014 -385.773)" style="fill:#172760;fill-rule:evenodd"/>
</svg>
