<svg data-name="bottom navigation_icon_setting" xmlns="http://www.w3.org/2000/svg" width="22" height="21" viewBox="0 0 22 21">
    <path data-name="패스 2475" d="M8 0a8 8 0 1 1-8 8 8 8 0 0 1 8-8z" transform="translate(3 3)" style="fill:#fff"/>
    <path data-name="사각형 87" style="fill:none" d="M0 0h22v21H0z"/>
    <g data-name="그룹 29">
        <path data-name="패스 2462" d="M16.805 11.345a1.688 1.688 0 0 1 0-2.925.977.977 0 0 0 .357-1.336L15.989 5.05a.979.979 0 0 0-1.337-.359 1.688 1.688 0 0 1-2.533-1.462.98.98 0 0 0-.978-.978H8.792a.98.98 0 0 0-.978.978A1.689 1.689 0 0 1 5.28 4.691a.98.98 0 0 0-1.335.359L2.771 7.083a.977.977 0 0 0 .357 1.338 1.688 1.688 0 0 1 0 2.925.977.977 0 0 0-.357 1.336l1.173 2.033a.98.98 0 0 0 1.337.359 1.688 1.688 0 0 1 2.533 1.462.98.98 0 0 0 .978.978h2.348a.98.98 0 0 0 .978-.978 1.689 1.689 0 0 1 2.534-1.462.982.982 0 0 0 1.335-.359l1.173-2.033a.977.977 0 0 0-.357-1.338zm-1.739 2.62a2.864 2.864 0 0 0-4.116 2.376H8.981a2.864 2.864 0 0 0-4.116-2.376l-.985-1.707a2.863 2.863 0 0 0 0-4.752L4.865 5.8a2.864 2.864 0 0 0 4.116-2.376h1.97A2.864 2.864 0 0 0 15.067 5.8l.985 1.707a2.863 2.863 0 0 0 0 4.752z" transform="translate(1.033 1.117)" style="fill:#172760"/>
        <path data-name="패스 2463" d="M11.185 8.25a2.935 2.935 0 1 0 2.935 2.935 2.94 2.94 0 0 0-2.935-2.935zm0 4.7a1.761 1.761 0 1 1 1.761-1.761 1.764 1.764 0 0 1-1.761 1.758z" transform="translate(-.186 -.186)" style="fill:#172760"/>
    </g>
</svg>
