<svg data-name="bottom navigation_icon_friend" xmlns="http://www.w3.org/2000/svg" width="22" height="21" viewBox="0 0 22 21">
    <path data-name="패스 2471" d="M8 0a8 8 0 1 1-8 8 8 8 0 0 1 8-8z" transform="translate(3 3)" style="fill:#efe7f3"/>
    <path data-name="사각형 83" style="fill:none" d="M0 0h22v21H0z"/>
    <g data-name="그룹 30">
        <path data-name="패스 2466" d="M12.263 9.288a7.156 7.156 0 0 0-2.73-1.712 4.153 4.153 0 1 0-4.7 0A7.2 7.2 0 0 0 0 14.367h1.122a6.061 6.061 0 1 1 12.122 0h1.122a7.137 7.137 0 0 0-2.103-5.079zm-5.08-2.1a3.031 3.031 0 1 1 3.031-3.031 3.034 3.034 0 0 1-3.03 3.027z" transform="translate(3.816 3.633)" style="fill:#172760"/>
    </g>
</svg>
