<svg data-name="bottom navigation_icon_key" xmlns="http://www.w3.org/2000/svg" width="30" height="30" viewBox="0 0 30 30">
    <path data-name="사각형 85" style="fill:none" d="M0 0h30v30H0z"/>
    <path d="M46.376-711.817a1.739 1.739 0 0 1-1.275-.531 1.739 1.739 0 0 1-.531-1.275 1.739 1.739 0 0 1 .53-1.277 1.739 1.739 0 0 1 1.275-.531 1.739 1.739 0 0 1 1.275.531 1.739 1.739 0 0 1 .531 1.275 1.739 1.739 0 0 1-.531 1.275 1.739 1.739 0 0 1-1.274.533zm0 4.569a6.149 6.149 0 0 1-4.516-1.86 6.149 6.149 0 0 1-1.86-4.516 6.149 6.149 0 0 1 1.86-4.516 6.149 6.149 0 0 1 4.516-1.86 6.148 6.148 0 0 1 3.347.9 6.04 6.04 0 0 1 2.258 2.736h9.458l3 3-4.439 4.07-2.338-1.7-2.338 1.7-1.993-1.594h-1.349a6.022 6.022 0 0 1-2.085 2.617 5.869 5.869 0 0 1-3.521 1.023zm0-1.594a4.5 4.5 0 0 0 2.843-1.023 4.558 4.558 0 0 0 1.674-2.617h3.029l1.435 1.2 2.338-1.674 2.178 1.647 2.258-2.1-1.355-1.355h-9.884a4.551 4.551 0 0 0-1.592-2.566 4.4 4.4 0 0 0-2.922-1.076 4.611 4.611 0 0 0-3.387 1.395 4.612 4.612 0 0 0-1.395 3.387 4.612 4.612 0 0 0 1.395 3.387 4.612 4.612 0 0 0 3.385 1.395z" transform="rotate(45 -846.27 -394.095)" style="fill:#172760"/>
</svg>
