<svg data-name="bottom navigation_icon_key" xmlns="http://www.w3.org/2000/svg" width="22" height="21.049" viewBox="0 0 22 21.049">
    <path data-name="패스 2473" d="M8 0a8 8 0 1 1-8 8 8 8 0 0 1 8-8z" transform="translate(3 3)" style="fill:#e7eef3"/>
    <path data-name="사각형 85" style="fill:none" d="M0 0h22v21H0z"/>
    <path d="M44.731-713.929a1.29 1.29 0 0 1-.946-.394 1.29 1.29 0 0 1-.394-.946 1.29 1.29 0 0 1 .394-.946 1.29 1.29 0 0 1 .946-.394 1.29 1.29 0 0 1 .946.394 1.29 1.29 0 0 1 .394.946 1.29 1.29 0 0 1-.394.946 1.29 1.29 0 0 1-.946.394zm0 3.39a4.562 4.562 0 0 1-3.351-1.38 4.562 4.562 0 0 1-1.38-3.35 4.562 4.562 0 0 1 1.38-3.351 4.562 4.562 0 0 1 3.351-1.38 4.562 4.562 0 0 1 2.484.67 4.482 4.482 0 0 1 1.675 2.03h7.017l2.227 2.227-3.292 3.016-1.735-1.262-1.735 1.262-1.472-1.182h-1.01a4.468 4.468 0 0 1-1.547 1.942 4.354 4.354 0 0 1-2.612.759zm0-1.183a3.34 3.34 0 0 0 2.109-.759 3.382 3.382 0 0 0 1.242-1.942h2.247l1.064.887 1.735-1.242 1.616 1.222 1.675-1.557-1.005-1.005h-7.332a3.376 3.376 0 0 0-1.183-1.9 3.266 3.266 0 0 0-2.168-.8 3.421 3.421 0 0 0-2.513 1.035 3.422 3.422 0 0 0-1.035 2.513 3.422 3.422 0 0 0 1.035 2.513 3.422 3.422 0 0 0 2.513 1.036z" transform="rotate(45 -846.503 -396.732)" style="fill:#172760"/>
</svg>
