<svg xmlns="http://www.w3.org/2000/svg" width="14" height="14" viewBox="0 0 14 14">
    <path data-name="패스 424824" d="m7.613.28 1.028 1.184a.811.811 0 0 0 .735.271l1.538-.235a.82.82 0 0 1 .938.8l.037 1.576a.829.829 0 0 0 .391.686l1.328.821a.834.834 0 0 1 .213 1.217l-.971 1.235a.836.836 0 0 0-.136.781l.5 1.494a.828.828 0 0 1-.612 1.075l-1.525.311a.819.819 0 0 0-.6.509l-.567 1.468a.812.812 0 0 1-1.151.425l-1.366-.755a.807.807 0 0 0-.782 0l-1.368.757a.812.812 0 0 1-1.151-.425l-.567-1.468a.819.819 0 0 0-.6-.509L1.4 11.185a.828.828 0 0 1-.611-1.075l.5-1.494a.836.836 0 0 0-.136-.781L.179 6.6a.834.834 0 0 1 .212-1.22l1.329-.821a.829.829 0 0 0 .391-.686L2.148 2.3a.82.82 0 0 1 .938-.8l1.538.237a.811.811 0 0 0 .735-.271L6.388.28a.809.809 0 0 1 1.225 0" style="fill:#26b84a"/>
    <path data-name="패스 424825" d="M2.875 5.043a.6.6 0 0 1-.4-.154L.189 2.832a.563.563 0 0 1-.031-.813.605.605 0 0 1 .842-.03l1.843 1.666L6.148.185a.6.6 0 0 1 .838-.032.563.563 0 0 1 .033.813L3.31 4.859a.6.6 0 0 1-.413.184h-.022" transform="translate(3.412 4.479)" style="fill:#fff"/>
</svg>
