<svg xmlns="http://www.w3.org/2000/svg" width="34" height="34" viewBox="0 0 34 34">
    <g data-name="그룹 129089">
        <path data-name="패스 464640" d="M14.983 173.933 13.19 181.3l.448 1.4 16.415 4.566 1.064-.616 1.093-3.45" transform="translate(-7.324 -158.332)" style="fill:#bbd2cd"/>
        <path data-name="패스 464641" d="m1945.06-1375.332-15.4-4.125a2.264 2.264 0 0 1-1.586-2.745l1.944-7.244a.752.752 0 0 1 .725-.553.768.768 0 0 1 .187.023.741.741 0 0 1 .457.349.744.744 0 0 1 .076.567l-1.942 7.241a.758.758 0 0 0 .532.918l15.393 4.122a.739.739 0 0 0 .189.024.737.737 0 0 0 .716-.547l.778-2.885a.75.75 0 0 1 .721-.554.73.73 0 0 1 .2.027.75.75 0 0 1 .527.916l-.778 2.879a2.236 2.236 0 0 1-2.165 1.66 2.257 2.257 0 0 1-.574-.073z" transform="translate(-1923 1404.9)" style="fill:#172760"/>
        <path data-name="패스 462177" d="M99.59 136.589c.057.085.968 1.082.968 1.082h17l1.025-1.082v-2.563l-5.44-5.9-.968-.13-4.472 5.427-.693-.2-1.358-1.481-.968-.37z" transform="translate(-89.838 -114.675)" style="fill:#68d28b"/>
        <path data-name="패스 462178" d="m95.99 9.558.2 12.56 4.842-4.642 1.139.114 1.937 1.823 4.642-5.4h.769l5.753 6.623V9.871l-.547-.921-1.076-.617-16.264.167z" transform="translate(-86.408 -.688)" style="fill:#a2daea"/>
        <path data-name="패스 464635" d="M1836.275-1930.3a2.278 2.278 0 0 1-2.275-2.275v-12.152a2.278 2.278 0 0 1 2.275-2.275h16.2a2.278 2.278 0 0 1 2.275 2.275v12.152a2.278 2.278 0 0 1-2.275 2.275zm-.762-14.427v12.152a.763.763 0 0 0 .762.762h16.2a.763.763 0 0 0 .762-.762v-12.152a.764.764 0 0 0-.762-.763h-16.2a.764.764 0 0 0-.762.766z" transform="translate(-1825.175 1953.999)" style="fill:#172760"/>
        <path data-name="패스 462181" d="M165.924 79.233a1.367 1.367 0 1 1-1.367-1.367 1.367 1.367 0 0 1 1.367 1.367" transform="translate(-150.419 -66.921)" style="fill:#fb0"/>
        <path data-name="패스 464638" d="M1834-1944.724a2.278 2.278 0 0 1 2.275-2.275 2.278 2.278 0 0 1 2.275 2.275 2.278 2.278 0 0 1-2.275 2.275 2.278 2.278 0 0 1-2.275-2.275zm1.513 0a.763.763 0 0 0 .762.762.763.763 0 0 0 .762-.762.764.764 0 0 0-.762-.763.764.764 0 0 0-.762.763z" transform="translate(-1822.137 1957.037)" style="fill:#172760"/>
        <path data-name="패스 464637" d="M1834.222-1937.221a.758.758 0 0 1 0-1.07l4.783-4.783a1.778 1.778 0 0 1 1.251-.5 1.776 1.776 0 0 1 1.251.5l1.23 1.23 3.766-4.519a1.772 1.772 0 0 1 1.346-.636h.014a1.77 1.77 0 0 1 1.343.616l5.3 6.179a.755.755 0 0 1 .181.549.751.751 0 0 1-.263.518.752.752 0 0 1-.491.183.757.757 0 0 1-.575-.265l-5.3-6.179a.252.252 0 0 0-.2-.088h-.022a.32.32 0 0 0-.175.093l-4.3 5.155a.753.753 0 0 1-.544.271.731.731 0 0 1-.573-.221l-1.814-1.814a.26.26 0 0 0-.182-.07.262.262 0 0 0-.182.07l-4.782 4.783a.754.754 0 0 1-.535.221.756.756 0 0 1-.527-.223z" transform="translate(-1825.104 1959.62)" style="fill:#172760"/>
    </g>
    <path data-name="사각형 67826" style="fill:none" d="M0 0h34v34H0z"/>
</svg>
