<svg xmlns="http://www.w3.org/2000/svg" width="34" height="34" viewBox="0 0 34 34">
    <defs>
        <clipPath id="2mmecyi9za">
            <path data-name="사각형 60937" style="fill:#f5f5f5" d="M0 0h17.799v13.184H0z"/>
        </clipPath>
        <clipPath id="sug9dn3ijb">
            <path data-name="사각형 60936" style="fill:#dcdcdc" d="M0 0h20.797v10.643H0z"/>
        </clipPath>
    </defs>
    <path data-name="사각형 67826" style="fill:none" d="M0 0h34v34H0z"/>
    <g data-name="그룹 129094">
        <g data-name="그룹 129091">
            <path data-name="패스 462187" d="M1.723.5.5 1.693v11.93l17.75-7.187v-3.23l-1.368-.786-6.722.116-.989-.669L8.066.883 7.309.5z" transform="translate(5.958 8.705)" style="fill:#f5f5f5"/>
            <g data-name="그룹 110809">
                <g data-name="그룹 110808" style="clip-path:url(#2mmecyi9za)" transform="translate(6.434 9.181)">
                    <path data-name="패스 462188" d="M.5 1.693v11.93l17.75-7.187v-3.23l-1.368-.786-6.722.116-.989-.669L8.066.883 7.309.5H1.722z" transform="translate(-.476 -.476)" style="fill:#f5f5f5"/>
                </g>
            </g>
        </g>
        <g data-name="그룹 129092">
            <g data-name="그룹 110806">
                <g data-name="그룹 110805" style="clip-path:url(#sug9dn3ijb)" transform="translate(6.434 14.359)">
                    <path data-name="패스 462186" d="m4.018.648-.912.559-1.796 5.17-.794 2.687.235 1.089 1.324.942H17.73l1.442-.8 2.089-7.582L21 1.59l-.68-.724L19.584.5z" transform="translate(-.49 -.476)" style="fill:#dcdcdc"/>
                </g>
            </g>
        </g>
        <g data-name="그룹 129093">
            <path data-name="패스 464642" d="M1767.067-2070.06a2.561 2.561 0 0 1-2.078-1.053 2.577 2.577 0 0 1-.5-1.595v-12.546a2.558 2.558 0 0 1 2.552-2.558h4.918a2.535 2.535 0 0 1 1.8.746l.988.984a.975.975 0 0 0 .683.279h6.294a2.558 2.558 0 0 1 2.557 2.552v1.011h.124a2.529 2.529 0 0 1 2.059 1.043 2.54 2.54 0 0 1 .387 2.27l-2.212 7.072a2.555 2.555 0 0 1-2.44 1.795zm1.253-9.915-2.2 7.042a.982.982 0 0 0 .148.879.991.991 0 0 0 .8.4h15.132a.954.954 0 0 0 .919-.673l2.212-7.071a.926.926 0 0 0-.146-.858.953.953 0 0 0-.779-.394h-15.166a.957.957 0 0 0-.92.674zm-2.247 1.86.732-2.336a2.555 2.555 0 0 1 2.44-1.789h13.455v-1.011a.964.964 0 0 0-.966-.96h-6.3a2.529 2.529 0 0 1-1.8-.746l-.986-.981a.99.99 0 0 0-.685-.282h-4.924a.964.964 0 0 0-.96.966v.4z" transform="translate(-1758.889 2096.412)" style="fill:#a5a5a5"/>
        </g>
    </g>
</svg>
