<?xml version="1.0" encoding="UTF-8" standalone="no"?>
<svg
   width="14"
   height="14"
   viewBox="0 0 14 14"
   version="1.1"
   id="svg25"
   sodipodi:docname="icon_14.svg"
   xmlns:inkscape="http://www.inkscape.org/namespaces/inkscape"
   xmlns:sodipodi="http://sodipodi.sourceforge.net/DTD/sodipodi-0.dtd"
   xmlns="http://www.w3.org/2000/svg"
   xmlns:svg="http://www.w3.org/2000/svg">
  <sodipodi:namedview
     id="namedview27"
     pagecolor="#ffffff"
     bordercolor="#000000"
     borderopacity="0.25"
     inkscape:showpageshadow="2"
     inkscape:pageopacity="0.0"
     inkscape:pagecheckerboard="0"
     inkscape:deskcolor="#d1d1d1" />
  <defs
     id="defs5">
    <clipPath
       id="crn7vg4hma">
      <path
         data-name="사각형 60914"
         style="fill:#fff"
         d="M0 0h8.345v7.152H0z"
         id="path2" />
    </clipPath>
  </defs>
  <path
     data-name="패스 424824"
     d="m7.613.28 1.028 1.184a.811.811 0 0 0 .735.271l1.538-.235a.82.82 0 0 1 .938.8l.037 1.576a.829.829 0 0 0 .391.686l1.328.821a.834.834 0 0 1 .213 1.217l-.971 1.235a.836.836 0 0 0-.136.781l.5 1.494a.828.828 0 0 1-.612 1.075l-1.525.311a.819.819 0 0 0-.6.509l-.567 1.468a.812.812 0 0 1-1.151.425l-1.366-.755a.807.807 0 0 0-.782 0l-1.368.757a.812.812 0 0 1-1.151-.425l-.567-1.468a.819.819 0 0 0-.6-.509L1.4 11.185a.828.828 0 0 1-.611-1.075l.5-1.494a.836.836 0 0 0-.136-.781L.179 6.6a.834.834 0 0 1 .212-1.22l1.329-.821a.829.829 0 0 0 .391-.686L2.148 2.3a.82.82 0 0 1 .938-.8l1.538.237a.811.811 0 0 0 .735-.271L6.388.28a.809.809 0 0 1 1.225 0"
     style="fill:#eebd23"
     id="path7" />
  <g
     data-name="그룹 129056"
     id="g23">
    <g
       data-name="그룹 129046"
       id="g21">
      <g
         data-name="그룹 129047"
         id="g19">
        <g
           data-name="그룹 110771"
           id="g15">
          <g
             data-name="그룹 110770"
             transform="translate(2.827,3.424)"
             clip-path="url(#crn7vg4hma)"
             id="g13">
            <path
               data-name="패스 429424"
               d="m 196.769,58.491 a 2.536,2.536 0 0 1 -2.533,2.533 h -0.447 v 0.83 a 0.212,0.212 0 0 1 -0.361,0.15 L 192,60.578 l 1.427,-1.427 a 0.212,0.212 0 0 1 0.361,0.15 v 0.83 h 0.447 a 1.6395,1.6395 0 0 0 0,-3.279 0.447,0.447 0 1 1 0,-0.894 2.536,2.536 0 0 1 2.533,2.533"
               transform="translate(-188.423,-54.916)"
               style="fill:#ffffff"
               id="path9" />
            <path
               data-name="패스 429425"
               d="M 4.769,1.49 3.342,2.917 A 0.212,0.212 0 0 1 2.981,2.767 V 1.937 H 2.533 a 1.6395,1.6395 0 0 0 0,3.279 0.447,0.447 0 1 1 0,0.894 2.5335,2.5335 0 1 1 0,-5.067 H 2.98 V 0.212 a 0.212,0.212 0 0 1 0.361,-0.15 z"
               style="fill:#ffffff"
               id="path11" />
          </g>
        </g>
        <path
           data-name="선 46"
           transform="translate(6.019,6.019)"
           style="fill:none;stroke:#ffffff;stroke-linecap:round"
           d="M 1.961,0 0,1.961"
           id="path17" />
      </g>
    </g>
  </g>
</svg>
