<svg xmlns="http://www.w3.org/2000/svg" width="34" height="34" viewBox="0 0 34 34">
    <path data-name="패스 462177" d="M99.59 136.589c.057.085.968 1.082.968 1.082h17l1.025-1.082v-2.563l-5.44-5.9-.968-.13-4.472 5.427-.693-.2-1.358-1.481-.968-.37z" transform="translate(-92.04 -109.655)" style="fill:#68d28b"/>
    <path data-name="패스 462178" d="m95.99 9.558.2 12.56 4.842-4.642 1.139.114 1.937 1.823 4.642-5.4h.769l5.753 6.623V9.871l-.547-.921-1.076-.617-16.264.167z" transform="translate(-88.61 4.332)" style="fill:#a2daea"/>
    <path data-name="패스 464635" d="M1836.275-1930.3a2.278 2.278 0 0 1-2.275-2.275v-12.152a2.278 2.278 0 0 1 2.275-2.275h16.2a2.278 2.278 0 0 1 2.275 2.275v12.152a2.278 2.278 0 0 1-2.275 2.275zm-.762-14.427v12.152a.763.763 0 0 0 .762.762h16.2a.763.763 0 0 0 .762-.762v-12.152a.764.764 0 0 0-.762-.763h-16.2a.764.764 0 0 0-.762.766z" transform="translate(-1827.377 1959.019)" style="fill:#172760"/>
    <path data-name="패스 462181" d="M165.924 79.233a1.367 1.367 0 1 1-1.367-1.367 1.367 1.367 0 0 1 1.367 1.367" transform="translate(-152.621 -61.901)" style="fill:#fb0"/>
    <path data-name="패스 464638" d="M1834-1944.724a2.278 2.278 0 0 1 2.275-2.275 2.278 2.278 0 0 1 2.275 2.275 2.278 2.278 0 0 1-2.275 2.275 2.278 2.278 0 0 1-2.275-2.275zm1.513 0a.763.763 0 0 0 .762.762.763.763 0 0 0 .762-.762.764.764 0 0 0-.762-.763.764.764 0 0 0-.762.763z" transform="translate(-1824.339 1962.057)" style="fill:#172760"/>
    <path data-name="패스 464637" d="M1834.222-1937.221a.758.758 0 0 1 0-1.07l4.783-4.783a1.778 1.778 0 0 1 1.251-.5 1.776 1.776 0 0 1 1.251.5l1.23 1.23 3.766-4.519a1.772 1.772 0 0 1 1.346-.636h.014a1.77 1.77 0 0 1 1.343.616l5.3 6.179a.755.755 0 0 1 .181.549.751.751 0 0 1-.263.518.752.752 0 0 1-.491.183.757.757 0 0 1-.575-.265l-5.3-6.179a.252.252 0 0 0-.2-.088h-.022a.32.32 0 0 0-.175.093l-4.3 5.155a.753.753 0 0 1-.544.271.731.731 0 0 1-.573-.221l-1.814-1.814a.26.26 0 0 0-.182-.07.262.262 0 0 0-.182.07l-4.782 4.783a.754.754 0 0 1-.535.221.756.756 0 0 1-.527-.223z" transform="translate(-1827.306 1964.64)" style="fill:#172760"/>
    <path data-name="패스 462184" d="M0 0h8v6H0z" transform="translate(21 11.186)" style="fill:#ff4d4d"/>
    <path data-name="패스 464636" d="M1835.3-1935.285a1.287 1.287 0 0 1-1.3-1.3v-4.556a1.284 1.284 0 0 1 1.051-1.278v-1.175a3.387 3.387 0 0 1 .993-2.411 3.389 3.389 0 0 1 2.411-.993 3.386 3.386 0 0 1 2.411.993 3.384 3.384 0 0 1 .994 2.411v1.175a1.284 1.284 0 0 1 1.051 1.278v4.556a1.287 1.287 0 0 1-1.3 1.3zm-.1-5.857v4.556c0 .073.028.1.1.1h6.308c.072 0 .1-.028.1-.1v-4.556c0-.072-.029-.1-.1-.1h-6.308c-.071-.001-.1.027-.1.099zm1.051-2.453v1.152h4.407v-1.152a2.18 2.18 0 0 0-2.2-2.2 2.18 2.18 0 0 0-2.206 2.195zm1.6 5.958v-.6a1.264 1.264 0 0 1-.7-1.148 1.287 1.287 0 0 1 1.3-1.3 1.287 1.287 0 0 1 1.3 1.3 1.264 1.264 0 0 1-.7 1.148v.6a.581.581 0 0 1-.6.6.581.581 0 0 1-.596-.601zm.25-1.752a.331.331 0 0 0 .35.351.332.332 0 0 0 .351-.351.331.331 0 0 0-.351-.35.331.331 0 0 0-.346.349z" transform="translate(-1813.436 1952.936)" style="fill:#172760"/>
    <path data-name="사각형 67826" style="fill:none" d="M0 0h34v34H0z"/>
</svg>
