<svg xmlns="http://www.w3.org/2000/svg" width="24" height="36" viewBox="0 0 24 36">
    <path data-name="사각형 88" style="fill:none" d="M0 0h24v36H0z"/>
    <path d="m135.584-824.146-5.03-5.175a5.635 5.635 0 0 1-1.788 1.035 6.322 6.322 0 0 1-2.173.37 6.361 6.361 0 0 1-4.679-1.917 6.306 6.306 0 0 1-1.914-4.625 6.3 6.3 0 0 1 1.917-4.625 6.318 6.318 0 0 1 4.638-1.917 6.276 6.276 0 0 1 4.625 1.917 6.329 6.329 0 0 1 1.9 4.629 6.363 6.363 0 0 1-.358 2.117 6.487 6.487 0 0 1-1.073 1.917l5.056 5.15zm-9.017-5.3a4.779 4.779 0 0 0 3.53-1.469 4.851 4.851 0 0 0 1.453-3.539A4.851 4.851 0 0 0 130.1-838a4.779 4.779 0 0 0-3.53-1.469A4.853 4.853 0 0 0 123-838a4.826 4.826 0 0 0-1.468 3.539 4.826 4.826 0 0 0 1.468 3.542 4.853 4.853 0 0 0 3.567 1.47z" transform="translate(-116.354 850.573)" style="fill:#c8c8c8"/>
</svg>
