<svg xmlns="http://www.w3.org/2000/svg" width="14" height="14" viewBox="0 0 14 14">
    <path data-name="패스 424824" d="m7.613.28 1.028 1.184a.811.811 0 0 0 .735.271l1.538-.235a.82.82 0 0 1 .938.8l.037 1.576a.829.829 0 0 0 .391.686l1.328.821a.834.834 0 0 1 .213 1.217l-.971 1.235a.836.836 0 0 0-.136.781l.5 1.494a.828.828 0 0 1-.612 1.075l-1.525.311a.819.819 0 0 0-.6.509l-.567 1.468a.812.812 0 0 1-1.151.425l-1.366-.755a.807.807 0 0 0-.782 0l-1.368.757a.812.812 0 0 1-1.151-.425l-.567-1.468a.819.819 0 0 0-.6-.509L1.4 11.185a.828.828 0 0 1-.611-1.075l.5-1.494a.836.836 0 0 0-.136-.781L.179 6.6a.834.834 0 0 1 .212-1.22l1.329-.821a.829.829 0 0 0 .391-.686L2.148 2.3a.82.82 0 0 1 .938-.8l1.538.237a.811.811 0 0 0 .735-.271L6.388.28a.809.809 0 0 1 1.225 0" style="fill:#e9402a"/>
    <g data-name="그룹 129057">
        <path data-name="패스 464632" d="M113.693 71.5h-.467a.625.625 0 0 0-.625.624v.042l.233 3.485a.625.625 0 0 0 1.247 0l.233-3.485a.625.625 0 0 0-.581-.665z" transform="translate(-106.461 -68.075)" style="fill:#fff"/>
        <path data-name="패스 464633" d="M112.967 165.911h-.277a.763.763 0 0 0 0 1.525h.277a.763.763 0 0 0 0-1.525" transform="translate(-105.829 -156.545)" style="fill:#fff"/>
    </g>
</svg>
