<svg xmlns="http://www.w3.org/2000/svg" width="34" height="34" viewBox="0 0 34 34">
    <defs>
        <clipPath id="wim2qnzw8a">
            <path data-name="사각형 60937" style="fill:#e69251" d="M0 0h17.799v13.184H0z"/>
        </clipPath>
        <clipPath id="2odmj6uptb">
            <path data-name="사각형 60936" style="fill:#f9cc4e" d="M0 0h20.797v10.643H0z"/>
        </clipPath>
    </defs>
    <path data-name="사각형 67826" style="fill:none" d="M0 0h34v34H0z"/>
    <g data-name="그룹 129094">
        <g data-name="그룹 129091">
            <path data-name="패스 462187" d="M1.723.5.5 1.693v11.93l17.75-7.187v-3.23l-1.368-.786-6.722.116-.989-.669L8.066.883 7.309.5z" transform="translate(5.958 8.705)" style="fill:#e69251"/>
            <g data-name="그룹 110809">
                <g data-name="그룹 110808" style="clip-path:url(#wim2qnzw8a)" transform="translate(6.434 9.181)">
                    <path data-name="패스 462188" d="M.5 1.693v11.93l17.75-7.187v-3.23l-1.368-.786-6.722.116-.989-.669L8.066.883 7.309.5H1.722z" transform="translate(-.476 -.476)" style="fill:#e69251"/>
                </g>
            </g>
        </g>
        <g data-name="그룹 129092">
            <g data-name="그룹 110806">
                <g data-name="그룹 110805" style="clip-path:url(#2odmj6uptb)" transform="translate(6.434 14.359)">
                    <path data-name="패스 462186" d="m4.018.648-.912.559-1.796 5.17-.794 2.687.235 1.089 1.324.942H17.73l1.442-.8 2.089-7.582L21 1.59l-.68-.724L19.584.5z" transform="translate(-.49 -.476)" style="fill:#f9cc4e"/>
                </g>
            </g>
        </g>
        <g data-name="그룹 129093">
            <path data-name="패스 429464" d="M21.257 6.452a2.136 2.136 0 0 0-1.737-.881H19v-1.41a2.155 2.155 0 0 0-2.157-2.152h-6.298a1.38 1.38 0 0 1-.965-.4L8.59.628A2.133 2.133 0 0 0 7.071 0H2.153A2.155 2.155 0 0 0 0 2.157V14.71a2.179 2.179 0 0 0 2.177 2.241h15.136a2.154 2.154 0 0 0 2.058-1.514l2.212-7.07a2.14 2.14 0 0 0-.326-1.915zM.788 2.157A1.367 1.367 0 0 1 2.148.792h4.923a1.388 1.388 0 0 1 .965.4l.99.985a2.133 2.133 0 0 0 1.519.628h6.3a1.367 1.367 0 0 1 1.366 1.361v1.41H4.355A2.156 2.156 0 0 0 2.3 7.08L.783 11.909V2.157zm20.033 5.977L18.61 15.2a1.354 1.354 0 0 1-1.3.955H2.173a1.388 1.388 0 0 1-1.326-1.8l2.2-7.041a1.354 1.354 0 0 1 1.3-.955h15.168a1.348 1.348 0 0 1 1.1.554 1.328 1.328 0 0 1 .206 1.221z" transform="translate(6.001 9)" style="fill:#172760;stroke:#172760;stroke-linecap:round;stroke-width:.8px"/>
        </g>
    </g>
</svg>
