<svg xmlns="http://www.w3.org/2000/svg" width="34" height="34" viewBox="0 0 34 34">
    <g data-name="그룹 130200">
        <path data-name="패스 462255" d="M-2059.819-3710.519a16.478 16.478 0 0 1-2.491 16.345c-6.288 8.31-14.577 4.316-14.577 4.316l5.465 3.743 6.139.9a16.791 16.791 0 0 0 9.058-4.641c3.844-3.99 2.674-11.129 2.674-11.129l-1.849-5.937z" transform="translate(2084.252 3716.251)" style="fill:#92a3df"/>
        <path data-name="패스 462254" d="M24.006 11.813a.789.789 0 1 1-1.16 1.07 11.511 11.511 0 0 0-16.926 0 .789.789 0 0 1-1.16-1.07 13.081 13.081 0 0 1 19.246 0m-9.623-.35a9.236 9.236 0 0 0-6.9 3.1.789.789 0 0 0 1.184 1.047 7.645 7.645 0 0 1 11.432 0 .789.789 0 0 0 1.18-1.049 9.236 9.236 0 0 0-6.9-3.1m0 3.867a5.337 5.337 0 0 0-4.178 2 .789.789 0 0 0 1.23.989 3.78 3.78 0 0 1 5.9 0 .789.789 0 0 0 1.23-.989 5.337 5.337 0 0 0-4.178-1.998zm1.492 5.358a1.492 1.492 0 1 1-1.488-1.486 1.494 1.494 0 0 1 1.492 1.492m12.891-6.305A14.383 14.383 0 1 1 14.383 0a14.4 14.4 0 0 1 14.383 14.383m-1.348 0a13.034 13.034 0 1 0-13.035 13.034 13.049 13.049 0 0 0 13.034-13.034" transform="translate(3 2.999)" style="fill:#172760;stroke:#172760;stroke-width:.5px"/>
    </g>
    <path data-name="사각형 67817" style="fill:none" d="M0 0h34v34H0z"/>
</svg>
