<svg xmlns="http://www.w3.org/2000/svg" width="34" height="34.296" viewBox="0 0 34 34.296">
    <g data-name="그룹 130202" transform="translate(0 .295)">
        <path data-name="사각형 60954" transform="translate(11 11.001)" style="fill:#92a3df" d="M0 0h4v4H0z"/>
        <rect data-name="사각형 60955" width="18" height="4" rx="1" transform="translate(8 28.001)" style="fill:#92a3df"/>
        <path data-name="패스 462256" d="M158.15 33.214h-15.408a2.038 2.038 0 0 1-2.035-2.035V21.1a.485.485 0 0 1 .971 0v10.079a1.066 1.066 0 0 0 1.065 1.065h15.407a1.066 1.066 0 0 0 1.065-1.065V2.118a1.066 1.066 0 0 0-1.065-1.065h-15.408a1.066 1.066 0 0 0-1.065 1.065v16.731a.485.485 0 0 1-.971 0V2.118a2.038 2.038 0 0 1 2.036-2.035h15.408a2.038 2.038 0 0 1 2.035 2.035v29.06a2.038 2.038 0 0 1-2.035 2.035" transform="translate(-133.876 -.078)" style="fill:#172760;stroke:#172760;stroke-width:.6px"/>
        <path data-name="패스 462257" d="M159.7 576.3h-18.508a.485.485 0 0 1 0-.971H159.7a.485.485 0 0 1 0 .971" transform="translate(-133.876 -547.403)" style="fill:#172760;stroke:#172760;stroke-width:.6px"/>
        <path data-name="패스 462258" d="M159.7 88.3h-18.508a.485.485 0 1 1 0-.971H159.7a.485.485 0 1 1 0 .971" transform="translate(-133.876 -83.094)" style="fill:#172760;stroke:#172760;stroke-width:.6px"/>
        <path data-name="패스 462259" d="M317.263 619.931H315.7a.485.485 0 1 1 0-.971h1.565a.485.485 0 1 1 0 .971" transform="translate(-299.911 -588.913)" style="fill:#172760;stroke:#172760;stroke-width:.6px"/>
        <path data-name="패스 462260" d="M287.207 41.093a.644.644 0 1 1-.644-.644.644.644 0 0 1 .644.644" transform="translate(-272.04 -38.485)" style="fill:#172760;stroke:#172760;stroke-width:.6px"/>
        <path data-name="패스 462261" d="M334.507 44.68h-2.69a.485.485 0 0 1 0-.971h2.69a.485.485 0 1 1 0 .971" transform="translate(-315.248 -41.586)" style="fill:#172760;stroke:#172760;stroke-width:.6px"/>
        <path data-name="패스 462262" d="M223.552 222.794h-3.5a.875.875 0 0 1-.874-.874v-3.5a.875.875 0 0 1 .874-.874h3.5a.875.875 0 0 1 .874.874v3.5a.875.875 0 0 1-.874.874m-3.4-.971h3.308v-3.308h-3.308z" transform="translate(-208.536 -206.983)" style="fill:#172760;stroke:#172760;stroke-width:.6px"/>
        <path data-name="패스 462263" d="M359.73 222.8h-3.5a.875.875 0 0 1-.874-.874v-3.5a.875.875 0 0 1 .874-.873h3.5a.875.875 0 0 1 .874.873v.475a.485.485 0 1 1-.971 0v-.378h-3.308v3.308h3.308v-.7a.485.485 0 1 1 .971 0v.794a.875.875 0 0 1-.874.874" transform="translate(-338.104 -206.984)" style="fill:#172760;stroke:#172760;stroke-width:.6px"/>
        <path data-name="패스 462264" d="M223.552 362.233h-3.5a.875.875 0 0 1-.874-.874v-3.5a.875.875 0 0 1 .874-.874h3.5a.875.875 0 0 1 .874.874v3.5a.875.875 0 0 1-.874.874m-3.4-.971h3.308v-3.308h-3.308z" transform="translate(-208.536 -339.654)" style="fill:#172760;stroke:#172760;stroke-width:.6px"/>
        <path data-name="패스 462265" d="M360.118 402.025h-4.279a.485.485 0 1 1 0-.971h4.279a.485.485 0 0 1 0 .971" transform="translate(-338.104 -381.584)" style="fill:#172760;stroke:#172760;stroke-width:.6px"/>
        <path data-name="패스 462266" d="M399.908 362.233a.485.485 0 0 1-.485-.485v-4.279a.485.485 0 0 1 .971 0v4.279a.485.485 0 0 1-.485.485" transform="translate(-380.033 -339.654)" style="fill:#172760;stroke:#172760;stroke-width:.6px"/>
    </g>
    <path data-name="사각형 60953" transform="translate(0 .296)" style="fill:none" d="M0 0h34v34H0z"/>
</svg>
