<svg xmlns="http://www.w3.org/2000/svg" width="34" height="34" viewBox="0 0 34 34">
    <g data-name="그룹 130201">
        <path data-name="패스 462271" d="m-2078.55-3613.372 2 1.518 1.275-1.518 1.7.911.486 1.943 3.157.243a12.422 12.422 0 0 1 .668-2.793c.243-.061 2.064 0 2.064 0l1.093.971 2.247-2.247-1.275-1.943.79-1.639 1.639-.3.668-3.1-2.307-.729-.79-1.882 1.275-1.275-2.247-2.186-1.518 1.154-1.639 2.732 1.639 2.732v2.854l-1.639 1.639-2.793.607-2.732-1.64-4.068 2.429z" transform="translate(2083.644 3641.96)" style="fill:#92a3df"/>
        <path data-name="패스 462272" d="m-2056.907-3640.367-5.369 4.772 1.328 1.2 1.2 2.1v2.47l-.6 2.4-1.123 1.273 5.59 1.806-.35-.533-.3-1.273.972-1.724s1.722-.225 1.872 0 1.048-1.123 1.048-1.123l-.524-3.292-2.4-.526-1.347-2.77 1.772-2.526z" transform="translate(2084.279 3646.09)" style="fill:#92a3df"/>
        <g data-name="그룹 110828">
            <path data-name="패스 462267" d="M18.611 167.545h-.553a.5.5 0 0 1-.466-.325 6.79 6.79 0 0 0-.2-.474.5.5 0 0 1 .1-.561l.394-.395a1.513 1.513 0 0 0 0-2.132l-1.421-1.421a1.513 1.513 0 0 0-2.133 0l-.394.394a.5.5 0 0 1-.561.1 9.128 9.128 0 0 0-.475-.2.494.494 0 0 1-.326-.467v-.553a1.509 1.509 0 0 0-1.51-1.511H9.054a1.509 1.509 0 0 0-1.509 1.509v.553a.5.5 0 0 1-.325.466 6.79 6.79 0 0 0-.474.2.5.5 0 0 1-.561-.1l-.395-.394a1.513 1.513 0 0 0-2.132 0l-1.421 1.426a1.512 1.512 0 0 0 0 2.133l.394.394a.5.5 0 0 1 .1.561 9.128 9.128 0 0 0-.2.475.494.494 0 0 1-.469.324h-.553A1.509 1.509 0 0 0 0 169.054v2.012a1.509 1.509 0 0 0 1.509 1.509h.553a.5.5 0 0 1 .466.325c.061.161.127.318.2.474a.5.5 0 0 1-.1.561l-.394.395a1.513 1.513 0 0 0 0 2.132l1.421 1.421a1.513 1.513 0 0 0 2.133 0l.394-.394a.5.5 0 0 1 .561-.1c.156.071.313.137.475.2a.494.494 0 0 1 .329.467v.553a1.509 1.509 0 0 0 1.509 1.509h2.012a1.509 1.509 0 0 0 1.509-1.509v-.553a.5.5 0 0 1 .325-.466 6.79 6.79 0 0 0 .474-.2.5.5 0 0 1 .561.1l.395.394a1.513 1.513 0 0 0 2.132 0l1.421-1.421a1.512 1.512 0 0 0 0-2.133l-.394-.394a.5.5 0 0 1-.1-.561c.071-.156.137-.313.2-.475a.5.5 0 0 1 .467-.326h.553a1.509 1.509 0 0 0 1.509-1.509v-2.012a1.509 1.509 0 0 0-1.509-1.509m.5 3.521a.5.5 0 0 1-.5.5h-.553a1.514 1.514 0 0 0-1.408.973q-.08.211-.173.416a1.513 1.513 0 0 0 .3 1.688l.393.394a.5.5 0 0 1 0 .711l-1.421 1.422a.5.5 0 0 1-.711 0l-.394-.394a1.512 1.512 0 0 0-1.688-.3c-.136.062-.275.12-.415.173a1.514 1.514 0 0 0-.972 1.407v.553a.5.5 0 0 1-.5.5H9.054a.5.5 0 0 1-.5-.5v-.553a1.514 1.514 0 0 0-.973-1.408q-.211-.08-.416-.173a1.514 1.514 0 0 0-1.688.3l-.394.393a.5.5 0 0 1-.711 0l-1.421-1.42a.5.5 0 0 1 0-.711l.394-.394a1.514 1.514 0 0 0 .3-1.688 6.846 6.846 0 0 1-.173-.415 1.514 1.514 0 0 0-1.407-.974h-.556a.5.5 0 0 1-.5-.5v-2.012a.5.5 0 0 1 .5-.5h.553a1.514 1.514 0 0 0 1.408-.973q.08-.211.173-.416a1.514 1.514 0 0 0-.3-1.688l-.4-.394a.5.5 0 0 1 0-.711l1.421-1.421a.5.5 0 0 1 .711 0l.394.394a1.512 1.512 0 0 0 1.688.3c.136-.062.275-.12.415-.173a1.514 1.514 0 0 0 .974-1.407v-.553a.5.5 0 0 1 .5-.5h2.012a.5.5 0 0 1 .5.5v.553a1.514 1.514 0 0 0 .973 1.408q.211.08.416.173a1.512 1.512 0 0 0 1.688-.3l.394-.393a.506.506 0 0 1 .712 0l1.421 1.421a.5.5 0 0 1 0 .711l-.394.394a1.514 1.514 0 0 0-.3 1.688c.062.136.12.275.173.415a1.514 1.514 0 0 0 1.407.972h.553a.5.5 0 0 1 .5.5z" transform="translate(2 -147.94)" style="fill:#172760;stroke:#172760;stroke-width:.6px"/>
            <path data-name="패스 462268" d="M97.005 252.326a4.83 4.83 0 0 0-.09-.743c-.018-.082-.041-.163-.063-.244q-.042-.155-.1-.306l-.076-.208a4.482 4.482 0 0 0-.222-.471c-.007-.012-.011-.024-.017-.036a4.462 4.462 0 0 0-.453-.659l-.046-.053a4.045 4.045 0 0 0-.216-.237c-.039-.041-.08-.079-.122-.118s-.1-.093-.151-.137-.123-.1-.187-.154l-.082-.061a4.5 4.5 0 0 0-2.7-.9c-.05 0-.1.008-.151.01a3.2 3.2 0 0 0-.323.02 4.985 4.985 0 0 0-.171.021 4.61 4.61 0 0 0-.487.091 4.529 4.529 0 0 0 0 8.772.114.114 0 0 1 .025 0 4.8 4.8 0 0 0 .527.1c.117.015.234.018.352.023.078 0 .151.016.233.016.143 0 .292-.01.444-.025a.493.493 0 0 0 .05-.007 4.6 4.6 0 0 0 .784-.159c.07-.021.139-.046.208-.07l.212-.077c.072-.027.131-.058.2-.089.085-.039.169-.077.252-.122a5.954 5.954 0 0 0 1.289-.931 1.583 1.583 0 0 0 .27-.33 5.37 5.37 0 0 0 .758-2.067 4.242 4.242 0 0 0 .048-.565v-.085c0-.071-.007-.136-.01-.2m-1 .329c0 .042 0 .083-.006.125a4.2 4.2 0 0 1-.045.366 3.528 3.528 0 0 1-1.768 2.465 4.537 4.537 0 0 1-.185.092l-.042.02a3.631 3.631 0 0 1-.917.278l-.067.011a3.13 3.13 0 0 1-.431.035h-.105a3.543 3.543 0 0 1-.356-.022l-.06-.007a3.721 3.721 0 0 1-.411-.077 3.521 3.521 0 0 1 0-6.821 3.641 3.641 0 0 1 .884-.111 3.476 3.476 0 0 1 .43.029c.038 0 .076.012.114.017.109.017.216.039.322.066l.1.027a3.552 3.552 0 0 1 .767.323l.115.07c.079.05.156.1.232.158.041.03.082.059.121.091a3.618 3.618 0 0 1 .283.251c.036.036.068.076.1.114.058.063.114.127.168.2.037.047.073.1.108.144.05.072.1.148.146.224l.076.125a3.455 3.455 0 0 1 .173.369c.02.05.037.1.055.151.033.093.061.186.086.281.013.05.027.1.037.144a3.544 3.544 0 0 1 .064.412c0 .037 0 .074.006.111a2.54 2.54 0 0 1 0 .349" transform="translate(-80.428 -230.407)" style="fill:#172760;stroke:#172760;stroke-width:.6px"/>
            <path data-name="패스 462269" d="M110.446 10.563h-1.582a.491.491 0 0 1-.469-.33 10.475 10.475 0 0 0-.565-1.364.492.492 0 0 1 .1-.568l1.122-1.123a1.509 1.509 0 0 0 0-2.133L106.91 2.91a1.509 1.509 0 0 0-2.133 0l-1.121 1.121a.492.492 0 0 1-.567.1 10.45 10.45 0 0 0-1.364-.568.491.491 0 0 1-.332-.469V1.509A1.509 1.509 0 0 0 99.883 0h-3.018a1.509 1.509 0 0 0-1.509 1.509v1.582a.491.491 0 0 1-.33.469 10.483 10.483 0 0 0-1.364.567.491.491 0 0 1-.568-.1l-1.123-1.118a1.512 1.512 0 0 0-2.133 0L87.7 5.044a1.509 1.509 0 0 0 0 2.134l1.652 1.652a.5.5 0 0 0 .712-.71l-1.65-1.652a.5.5 0 0 1 0-.711l2.135-2.135a.5.5 0 0 1 .711 0l1.124 1.122a1.5 1.5 0 0 0 1.728.284 9.517 9.517 0 0 1 1.233-.513 1.5 1.5 0 0 0 1.017-1.423V1.509a.5.5 0 0 1 .5-.5h3.018a.5.5 0 0 1 .5.5v1.582a1.5 1.5 0 0 0 1.02 1.423 9.487 9.487 0 0 1 1.233.513 1.5 1.5 0 0 0 1.728-.284l1.124-1.121a.5.5 0 0 1 .711 0l2.135 2.135a.5.5 0 0 1 0 .711l-1.122 1.124a1.5 1.5 0 0 0-.284 1.728 9.517 9.517 0 0 1 .513 1.233 1.5 1.5 0 0 0 1.423 1.017h1.582a.5.5 0 0 1 .5.5v3.02a.5.5 0 0 1-.5.5h-1.582a1.5 1.5 0 0 0-1.423 1.017 9.476 9.476 0 0 1-.513 1.233 1.5 1.5 0 0 0 .284 1.728l1.122 1.124a.5.5 0 0 1 0 .711L106.2 23.54a.5.5 0 0 1-.711 0l-1.653-1.649a.5.5 0 0 0-.723.7l.012.012 1.652 1.649a1.509 1.509 0 0 0 2.133 0l2.135-2.134a1.509 1.509 0 0 0 0-2.134l-1.12-1.122a.493.493 0 0 1-.1-.567 10.451 10.451 0 0 0 .568-1.364.491.491 0 0 1 .469-.332h1.582a1.509 1.509 0 0 0 1.509-1.509v-3.018a1.509 1.509 0 0 0-1.509-1.509" transform="translate(-79.775 2)" style="fill:#172760;stroke:#172760;stroke-width:.6px"/>
            <path data-name="패스 462270" d="M197.607 113.962a6.546 6.546 0 0 0-9.247 0 .5.5 0 0 0 .711.711 5.533 5.533 0 0 1 7.877 7.772l-.052.052a.5.5 0 0 0 .7.724l.012-.012a6.545 6.545 0 0 0 0-9.247" transform="translate(-174.384 -103.004)" style="fill:#172760;stroke:#172760;stroke-width:.6px"/>
        </g>
    </g>
    <path data-name="사각형 67818" style="fill:none" d="M0 0h34v34H0z"/>
</svg>
