<svg xmlns="http://www.w3.org/2000/svg" width="34" height="34" viewBox="0 0 34 34">
    <g data-name="그룹 110824">
        <path data-name="패스 462237" d="m74.527 104.054.225 1.114a3.288 3.288 0 0 1-3.288 3.288l-1.123-.234-.225-1.114a3.288 3.288 0 0 1 3.284-3.288l1.114.225z" transform="translate(-62.687 -92.262)" style="fill:#92a3df;fill-rule:evenodd"/>
        <path data-name="패스 462238" d="m347.157 104.187-1.114-.225a3.288 3.288 0 0 0-3.288 3.288l.225 1.114 1.114.225a3.288 3.288 0 0 0 3.279-3.288z" transform="translate(-318.104 -92.395)" style="fill:#92a3df;fill-rule:evenodd"/>
        <path data-name="패스 462239" d="M63.257 264.816h-1.474a3.9 3.9 0 0 0-3.9 3.89v3.459h5.391v-7.34z" transform="translate(-51.228 -243.087)" style="fill:#92a3df;fill-rule:evenodd"/>
        <path data-name="패스 462240" d="M358.116 272.293v-7.34h4.42a.732.732 0 0 1 1.006 1.006v4.42a1.95 1.95 0 0 1-1.985 1.914h-3.442z" transform="translate(-332.494 -243.216)" style="fill:#92a3df;fill-rule:evenodd"/>
        <path data-name="합치기 1" d="M2129.014 4167.283a4.413 4.413 0 0 1 .036-8.825h.038a4.413 4.413 0 0 1 4.375 4.412 4.428 4.428 0 0 1-4.421 4.414zm-2.757-4.43a2.757 2.757 0 1 0 2.757-2.739h-.1v-.016a2.761 2.761 0 0 0-2.657 2.755z" transform="translate(-2111.496 -4153.558)" style="fill:#172760"/>
        <path data-name="패스 462242" d="M31.892 69.47a4.016 4.016 0 1 1 4.016-4.016v.009a4.025 4.025 0 0 1-4.016 4.007m0-6.567a2.552 2.552 0 1 0 2.56 2.56 2.552 2.552 0 0 0-2.56-2.563z" transform="translate(-23.115 -52.557)" style="stroke:#172760;stroke-width:.2px;fill:#172760"/>
        <path data-name="패스 462243" d="M304.238 69.47a4.016 4.016 0 1 1 4.025-4.007 4.016 4.016 0 0 1-4.025 4.007m0-6.567a2.552 2.552 0 1 0 2.56 2.56 2.552 2.552 0 0 0-2.56-2.56" transform="translate(-278.266 -52.557)" style="stroke:#172760;stroke-width:.2px;fill:#172760"/>
        <path data-name="패스 462244" d="M27.393 163.262a4.6 4.6 0 0 0-3.27-1.357h-.979a.728.728 0 1 0 0 1.455h.97a3.162 3.162 0 0 1 3.171 3.153v4.429a1.213 1.213 0 0 1-1.2 1.222h-5.619v-8.688a4.627 4.627 0 0 0-4.627-4.618H12.91a4.627 4.627 0 0 0-4.627 4.618v8.688H2.7a1.213 1.213 0 0 1-1.222-1.2v-4.429a3.162 3.162 0 0 1 3.162-3.162h.97a.728.728 0 0 0 0-1.455h-.983A4.627 4.627 0 0 0 0 166.533v4.42a2.7 2.7 0 0 0 2.7 2.7h23.354a2.7 2.7 0 0 0 2.7-2.7v-4.42a4.582 4.582 0 0 0-1.357-3.27m-17.645.216a3.162 3.162 0 0 1 3.162-3.153h2.92A3.162 3.162 0 0 1 19 163.478v8.7H9.748z" transform="translate(3 -143.825)" style="stroke:#172760;stroke-width:.2px;fill:#172760"/>
    </g>
    <path data-name="사각형 67815" style="fill:none" d="M0 0h34v34H0z"/>
</svg>
