<svg xmlns="http://www.w3.org/2000/svg" width="34" height="34" viewBox="0 0 34 34">
    <g data-name="그룹 130198">
        <path data-name="사각형 60952" d="M6 0h11v10H0V6a6 6 0 0 1 6-6z" transform="translate(6.883 18.946)" style="fill:#92a3df"/>
        <path data-name="패스 462245" d="M28.854 3.257H18.3a.037.037 0 0 1-.033-.02l-1.092-2.208A1.853 1.853 0 0 0 15.522 0H9.14A1.845 1.845 0 0 0 7.3 1.843v1.806H5.491a1.844 1.844 0 0 0-1.842 1.843V7.3H1.842A1.845 1.845 0 0 0 0 9.14v14.909a1.845 1.845 0 0 0 1.842 1.842h19.714a1.844 1.844 0 0 0 1.844-1.842v-1.806h1.807a1.844 1.844 0 0 0 1.841-1.843v-1.806h1.806a1.844 1.844 0 0 0 1.846-1.842V5.1a1.845 1.845 0 0 0-1.842-1.843m-7.3 20.829H1.842a.037.037 0 0 1-.037-.037V9.14a.037.037 0 0 1 .037-.04h6.383a.037.037 0 0 1 .017 0l.005.006a.039.039 0 0 1 .008.009l1.089 2.209A1.831 1.831 0 0 0 11 12.361H21.57a.037.037 0 0 1 .022.034v11.651a.037.037 0 0 1-.037.037m3.687-3.683a.037.037 0 0 1-.037.037H23.4V12.4a1.845 1.845 0 0 0-1.843-1.843H11a.037.037 0 0 1-.033-.021l-1.09-2.211A1.832 1.832 0 0 0 8.225 7.3H5.454V5.492a.037.037 0 0 1 .037-.037h6.383a.036.036 0 0 1 .033.021L13 7.685a1.832 1.832 0 0 0 1.652 1.027h10.554a.037.037 0 0 1 .037.037zm3.649-3.649a.037.037 0 0 1-.037.037h-1.806V8.749a1.844 1.844 0 0 0-1.842-1.842H14.648a.037.037 0 0 1-.033-.021l-1.089-2.209a1.83 1.83 0 0 0-1.653-1.028H9.1V1.843a.037.037 0 0 1 .037-.037h6.382a.037.037 0 0 1 .033.021l1.09 2.21A1.832 1.832 0 0 0 18.3 5.063h10.554a.037.037 0 0 1 .037.037v11.652z" transform="translate(2 4)" style="fill:#172760"/>
        <path data-name="패스 462246" d="M18.044 24.161a.9.9 0 0 0-.9.9v.522a.903.903 0 1 0 1.806 0v-.522a.9.9 0 0 0-.9-.9"/>
        <path data-name="패스 462247" d="M20.675 24.161a.9.9 0 0 0-.9.9v.522a.903.903 0 0 0 1.806 0v-.522a.9.9 0 0 0-.9-.9"/>
    </g>
    <path data-name="사각형 67814" style="fill:none" d="M0 0h34v34H0z"/>
</svg>
