<svg xmlns="http://www.w3.org/2000/svg" width="34" height="34" viewBox="0 0 34 34">
    <g data-name="그룹 130199">
        <path data-name="패스 462252" d="m-2070.782-3767.325 3.934-6.363 3.519 3.369 5.839-7.336 5.54 6.214v3.144l-1.422.973z" transform="translate(2083.174 3790.68)" style="fill:#92a3df"/>
        <path data-name="패스 462253" d="m-2069-3781.582-1.908 2.249.613.886 1.465-.409.784-1.022z" transform="translate(2083.174 3790.68)" style="fill:#92a3df"/>
        <g data-name="그룹 110825">
            <path data-name="패스 462248" d="M21.705 182.071a2.481 2.481 0 0 1-.634-.082l-19.231-5.15a2.51 2.51 0 0 1-1.759-3.047l2.426-9.044a.622.622 0 0 1 1.2.321l-2.425 9.041a1.262 1.262 0 0 0 .883 1.528l19.223 5.148a1.238 1.238 0 0 0 1.513-.876l.971-3.6a.622.622 0 0 1 1.2.323l-.97 3.594a2.484 2.484 0 0 1-2.397 1.844z" transform="translate(2.001 -150.711)" style="fill:#172760;stroke:#172760;stroke-width:.4px"/>
            <path data-name="패스 462249" d="M107.709 19.9H87.81a2.49 2.49 0 0 1-2.487-2.487V2.487A2.49 2.49 0 0 1 87.81 0h19.9a2.49 2.49 0 0 1 2.49 2.487v14.924a2.49 2.49 0 0 1-2.487 2.487M87.81 1.244a1.246 1.246 0 0 0-1.244 1.244v14.923a1.246 1.246 0 0 0 1.244 1.244h19.9a1.246 1.246 0 0 0 1.244-1.244V2.487a1.246 1.246 0 0 0-1.244-1.244z" transform="translate(-78.348 4)" style="fill:#172760;stroke:#172760;stroke-width:.4px"/>
            <path data-name="패스 462250" d="M151.81 68.975a2.487 2.487 0 1 1 2.487-2.487 2.49 2.49 0 0 1-2.487 2.487m0-3.731a1.244 1.244 0 1 0 1.244 1.244 1.246 1.246 0 0 0-1.244-1.244" transform="translate(-138.617 -56.269)" style="fill:#172760;stroke:#172760;stroke-width:.4px"/>
            <path data-name="패스 462251" d="M87.433 130.065a.621.621 0 0 1-.44-1.061l5.874-5.874a1.912 1.912 0 0 1 2.638 0l1.749 1.749 4.84-5.808a1.869 1.869 0 0 1 1.42-.672h.014a1.864 1.864 0 0 1 1.416.65l6.5 7.589a.622.622 0 0 1-.944.81l-6.5-7.589a.615.615 0 0 0-.473-.216.66.66 0 0 0-.478.224l-5.276 6.333a.619.619 0 0 1-.45.223.6.6 0 0 1-.468-.182l-2.23-2.23a.639.639 0 0 0-.879 0l-5.874 5.874a.619.619 0 0 1-.439.18z" transform="translate(-79.749 -107.497)" style="fill:#172760;stroke:#172760;stroke-width:.4px"/>
        </g>
    </g>
    <path data-name="사각형 67816" style="fill:none" d="M0 0h34v34H0z"/>
</svg>
